<svg id="Capa_1" data-name="Capa 1" xmlns="http://www.w3.org/2000/svg" viewBox="0 0 311.77 311.77"><defs><style>.cls-1{fill:#030304;}.cls-2{fill:#fdfdfd;}.cls-3{fill:none;stroke:#ffcf1f;stroke-miterlimit:10;stroke-width:6px;}</style></defs><path class="cls-1" d="M253.85,198.71c-4.2-4.94-7.92-8.93-11.17-13.28s-5.67-5.52-9.84-.5c-6.4,7.7-13.67,14.67-20.57,21.95l-2.07-1.28,29.54-66,16.74,19.16c9.2-11.51,18.18-22.6,26.95-33.87,1.57-2,3.1-5,5.51-3.62,3.18,1.81-.24,4.44-1.05,6.19-9.77,21.23-19.83,42.32-29.85,63.43C256.89,193.33,255.51,195.63,253.85,198.71Z" transform="translate(-45.11 -34.28)"/><path class="cls-1" d="M146,199.14c-12.09-25.32-23.76-49.79-35.49-74.23-.68-1.41-1.56-2.68.31-3.7,2.54-1.38,3.54.85,4.7,2.29,9.29,11.56,18.52,23.16,28.22,35.32l15.58-17.95c2.5.31,2.51,2.35,3.16,3.79q11.75,26,23.43,51.94c.77,1.71,2.67,3.61.4,5.21-2.08,1.47-3.66-.44-5-1.87-5.27-5.57-10.66-11.06-15.68-16.85-2.49-2.87-4-2.71-6.22.16C155.46,188.3,151.16,193.09,146,199.14Z" transform="translate(-45.11 -34.28)"/><path class="cls-1" d="M214.29,279.22a26.87,26.87,0,0,1-27-22.71c-.71-4.19-2.38-5.85-6.2-6.57-13.68-2.6-25-10.07-36.41-17.52-2.94-1.93-5.15-4.27-2.69-7.89s5.47-3,8.87-.81c11.14,7.33,22.39,14.41,35.95,16.7,21.1,3.57,40.05-1.27,57.48-13.47,3.66-2.55,8.15-9.43,12.8-2.4,4.44,6.72-3.76,7.95-7,11.11a17.75,17.75,0,0,1-5.51,3.7c-4.5,1.82-4.74,4.27-3.6,8.91C244.7,263.61,231,279.21,214.29,279.22Z" transform="translate(-45.11 -34.28)"/><path class="cls-2" d="M227.71,248.35c5.63-1.71,6.43.79,6.15,5.37-.59,9.49-9.5,17.75-19.42,17.87a19,19,0,0,1-14.53-6.22c-3.09-3.21-6.52-7.37-4.88-11.71" transform="translate(-45.11 -34.28)"/><circle class="cls-3" cx="155.89" cy="155.89" r="152.89"/></svg>